<?xml version="1.0" encoding="UTF-8" standalone="no"?>
<!-- Created with Inkscape (http://www.inkscape.org/) -->

<svg
   version="1.1"
   id="svg55"
   width="300.57654"
   height="132.09802"
   viewBox="0 0 300.57654 132.09802"
   sodipodi:docname="radio-rosita-logo.svg"
   inkscape:version="1.2.2 (b0a8486541, 2022-12-01)"
   xmlns:inkscape="http://www.inkscape.org/namespaces/inkscape"
   xmlns:sodipodi="http://sodipodi.sourceforge.net/DTD/sodipodi-0.dtd"
   xmlns:xlink="http://www.w3.org/1999/xlink"
   xmlns="http://www.w3.org/2000/svg"
   xmlns:svg="http://www.w3.org/2000/svg">
  <defs
     id="defs59">
    <linearGradient
       id="linearGradient19369"
       inkscape:swatch="solid">
      <stop
         style="stop-color:#ffc003;stop-opacity:1;"
         offset="0"
         id="stop19367" />
    </linearGradient>
    <linearGradient
       inkscape:collect="always"
       xlink:href="#linearGradient19369"
       id="linearGradient19371"
       x1="-403.75195"
       y1="-316.3291"
       x2="-112.77539"
       y2="-316.3291"
       gradientUnits="userSpaceOnUse" />
  </defs>
  <sodipodi:namedview
     id="namedview57"
     pagecolor="#ffffff"
     bordercolor="#000000"
     borderopacity="0.25"
     inkscape:showpageshadow="2"
     inkscape:pageopacity="0.0"
     inkscape:pagecheckerboard="0"
     inkscape:deskcolor="#d1d1d1"
     showgrid="false"
     inkscape:zoom="0.97812497"
     inkscape:cx="-455.46327"
     inkscape:cy="-344.53675"
     inkscape:window-width="2560"
     inkscape:window-height="1301"
     inkscape:window-x="0"
     inkscape:window-y="32"
     inkscape:window-maximized="1"
     inkscape:current-layer="g61" />
  <g
     id="g1933"
     transform="translate(408.55196,382.37813)"
     inkscape:groupmode="layer">
    <path
       id="rect16539"
       style="fill:#2a2954;fill-opacity:1;stroke:url(#linearGradient19371);stroke-width:9.6;stroke-linejoin:round;stroke-dasharray:none;paint-order:stroke fill markers"
       d="m -297.62305,-377.57812 c -3.72553,0 -6.72461,2.99908 -6.72461,6.7246 v 12.89063 c 0,0.16159 0.0123,0.31984 0.0234,0.47851 h -59.84766 c -21.92721,0 -39.58007,17.65286 -39.58007,39.58008 0,18.50855 12.59612,33.92708 29.70507,38.29883 v 14.8125 c 0,5.3807 4.3322,9.71289 9.7129,9.71289 h 212.14062 c 5.3807,0 9.71289,-4.33219 9.71289,-9.71289 v -14.8125 c 17.10896,-4.37175 29.70508,-19.79028 29.70508,-38.29883 0,-21.92722 -17.65285,-39.58007 -39.58008,-39.58008 h -60.57031 c 0.0111,-0.15867 0.0234,-0.31692 0.0234,-0.47851 v -12.89063 c 0,-3.72552 -3.00104,-6.7246 -6.72657,-6.7246 z"
       inkscape:export-filename="rect16539.svg"
       inkscape:export-xdpi="96"
       inkscape:export-ydpi="96" />
    <path
       style="fill:#ebebef"
       d="m -323.8386,-290.75411 c -11.66893,-2.98556 -17.5,-12.30523 -17.5,-27.96987 0,-9.32677 2.46485,-15.92373 7.92991,-21.22371 4.93239,-4.78341 7.93064,-5.90857 15.74475,-5.90857 8.24,0 16.03908,5.94624 19.32777,14.73603 2.41804,6.46279 2.65856,17.67517 0.53272,24.83365 -1.58577,5.33987 -7.31196,12.29119 -11.65483,14.1484 -3.73246,1.59616 -10.86736,2.28288 -14.38032,1.38407 z m 9.58666,-11.38395 c 3.12164,-2.39673 3.91333,-5.61693 3.9096,-15.90246 -0.004,-11.59227 -1.73833,-16.21093 -6.53898,-17.41582 -7.00645,-1.7585 -10.45728,4.01732 -10.45728,17.50286 0,9.45464 1.02104,13.78544 3.73616,15.84722 2.08225,1.5812 7.27261,1.56355 9.3505,-0.0318 z m 39.91334,11.2706 c -5.56433,-0.98559 -9.9844,-2.6647 -12.13293,-4.6091 -1.51242,-1.36872 -1.49182,-1.78072 0.27151,-5.43039 1.04945,-2.17212 2.0101,-3.94908 2.13476,-3.94881 0.12466,2.8e-4 2.59399,0.90028 5.48739,2 6.67432,2.53678 12.38258,2.60361 14.58428,0.17076 3.56098,-3.93483 0.72018,-7.52566 -8.56441,-10.82559 -6.86358,-2.43945 -12.3835,-7.71201 -13.32437,-12.72727 -1.63233,-8.70109 5.80127,-18.15095 15.14909,-19.25806 5.5103,-0.65261 15.12285,0.98919 17.96672,3.06868 1.7794,1.30113 1.77878,1.4666 -0.0204,5.4564 -1.93874,4.29936 -2.52102,4.74523 -4.11513,3.15112 -0.52991,-0.52991 -3.53171,-1.26531 -6.67067,-1.63424 -4.46377,-0.52462 -6.25826,-0.30969 -8.23653,0.98652 -5.25215,3.44134 -2.21248,8.09542 7.20938,11.0384 4.16814,1.30194 6.93651,3.01743 10.01128,6.20374 3.86458,4.00475 4.25,4.86497 4.25,9.48547 0,12.63242 -9.64731,19.41463 -24,16.87237 z m 115.16932,0.0186 c -6.94116,-1.64187 -12.22948,-10.57448 -10.78519,-18.21751 1.83969,-9.7355 9.50829,-14.40018 24.95685,-15.18083 1.7424,-0.088 2.21826,-0.82174 2.46599,-3.80213 0.59089,-7.10873 -5.7652,-9.71567 -15.30697,-6.27813 -2.2,0.79258 -4.49127,1.44783 -5.09171,1.45611 -1.26794,0.0175 -3.7717,-7.58792 -2.94067,-8.93256 2.26055,-3.65763 23.94945,-4.97079 28.8719,-1.74805 5.88103,3.85032 6.64832,6.62096 6.70063,24.19566 0.0337,11.30929 0.47011,17.17268 1.48869,20 0.79257,2.2 1.44782,4.27636 1.4561,4.61414 0.0266,1.08354 -8.99454,4.09616 -10.51665,3.51206 -0.80756,-0.30984 -1.46829,-1.22596 -1.46829,-2.03576 0,-2.50473 -1.87109,-2.7884 -4.18334,-0.63422 -2.18648,2.03701 -7.91883,4.12286 -10.81666,3.93588 -0.825,-0.0532 -2.9988,-0.45131 -4.83068,-0.88462 z m 14.19582,-11.08002 c 2.31703,-1.82257 2.63486,-2.78758 2.63486,-8 v -5.92738 h -3.59887 c -7.91581,0 -13.29491,5.27338 -11.22581,11.00518 1.88978,5.23506 7.53047,6.58729 12.18982,2.92224 z m -243.89554,8.854 c -0.27841,-0.72554 -0.38547,-12.33566 -0.2379,-25.80027 l 0.2683,-24.48111 9.90791,-0.28811 c 21.08837,-0.61324 28.59209,4.09556 28.59209,17.94236 0,6.40805 -1.84728,10.62647 -6.40633,14.62936 l -3.70424,3.25237 2.25711,3.23201 c 1.24141,1.77761 2.52546,3.45701 2.85346,3.73201 1.36441,1.14394 5,6.89137 5,7.90437 0,0.67993 -2.42584,1.09563 -6.39362,1.09563 h -6.39363 l -4.78288,-7 c -2.63059,-3.85 -5.15346,-7 -5.60638,-7 -0.45292,0 -1.16099,-0.007 -1.57349,-0.0152 -0.4125,-0.008 -0.975,3.02914 -1.25,6.75 l -0.5,6.76521 -5.76209,0.30026 c -4.07224,0.21221 -5.91056,-0.0866 -6.26831,-1.01888 z m 22.03014,-24.34828 c 1.81609,-0.86179 3.56546,-2.54929 3.88747,-3.75 2.01879,-7.5275 -1.28042,-12.59146 -8.6521,-13.28011 l -4.73511,-0.44235 v 9.51968 9.51968 h 3.09887 c 1.70438,0 4.58477,-0.7051 6.40087,-1.5669 z m 132.47097,24.3169 c -0.0161,-0.6875 -0.12862,-10.25 -0.25,-21.25 l -0.22071,-20 -4.75,-0.30479 -4.75,-0.30479 v -4.47796 -4.47796 l 11.07559,0.28275 11.07559,0.28275 0.24632,19.5 c 0.13547,10.725 0.0615,22.3125 -0.16442,25.75 l -0.41072,6.25 h -5.91118 c -4.04665,0 -5.92042,-0.39428 -5.94047,-1.25 z"
       id="path15958"
       sodipodi:nodetypes="ssssssssscsssssssssssssssssssssssssssssssssssssssssscsssssscssscsssscsscscsssssscccsssscccccccsscss" />
    <path
       style="fill:#ffc003;fill-opacity:1"
       d="m 48.052709,-249.58627 0.0614,14.5 0.0614,6.5 6.68861,0.29569 c 7.31361,0.32332 8.02416,1.179 5.52809,6.65726 -1.04917,2.30265 -1.71629,2.54705 -6.95243,2.54705 h -5.79191 l 0.20242,15.25 c 0.11133,8.3875 0.59856,15.86441 1.08274,16.61536 0.80733,1.25218 5.88723,1.25382 10.47156,0.003 0.89143,-0.24315 1.78447,1.28472 2.62195,4.48579 l 1.27007,4.85453 -3.33983,1.39547 c -1.83691,0.76789 -6.03311,1.39585 -9.3249,1.39585 -13.07345,0 -15.07917,-3.66122 -15.07917,-27.52541 v -16.35959 l -4.25,-0.3075 c -3.96508,-0.28689 -4.25564,-0.50862 -4.3341,-3.3075 -0.1147,-4.09173 1.21843,-5.5 5.20654,-5.5 h 3.37756 l -0.25559,-20.93156 c -0.15547,0.1607 12.75559,-0.56844 12.75559,-0.56844 z"
       id="path15956"
       sodipodi:nodetypes="cccssscsscsccsscsssccc"
       transform="translate(-240.39789,-111.10923)" />
    <g
       aria-label="www.rosita.nl"
       id="text16487"
       style="font-weight:bold;font-size:107.025px;font-family:'Hind Guntur';-inkscape-font-specification:'Hind Guntur, Bold';letter-spacing:2px;fill:#2a2954">
      <path
         d="m -318.03328,-262.74762 -1.53125,-5.61459 q -0.0365,-0.16407 -0.0912,-0.36459 -0.0547,-0.20963 -0.10937,-0.4375 -0.0547,-0.22786 -0.11849,-0.46484 -0.0547,-0.23698 -0.10938,-0.46485 -0.1276,-0.52864 -0.26432,-1.09375 h -0.0547 q -0.1276,0.57422 -0.24609,1.10287 -0.10026,0.45573 -0.21875,0.9388 -0.10938,0.48308 -0.20964,0.82032 l -1.56771,5.57813 h -1.92318 l -2.5612,-10.00783 h 1.74089 l 1.19401,5.32293 q 0.0911,0.41015 0.18229,0.89323 0.0912,0.47396 0.17318,0.94792 0.082,0.46484 0.14583,0.88411 0.0638,0.41016 0.10026,0.67448 h 0.0547 q 0.0456,-0.23698 0.11849,-0.62891 0.082,-0.40104 0.17318,-0.83854 0.10026,-0.44661 0.20052,-0.875 0.10026,-0.4375 0.1914,-0.73828 l 1.63152,-5.64194 h 1.78646 l 1.56771,5.64194 q 0.082,0.30989 0.18229,0.72917 0.10938,0.41927 0.20964,0.85677 0.10026,0.42838 0.18229,0.82943 0.082,0.40104 0.11849,0.66536 h 0.0547 q 0.0273,-0.23698 0.082,-0.62891 0.0638,-0.40104 0.14583,-0.875 0.082,-0.47396 0.17318,-0.96614 0.10026,-0.50131 0.20052,-0.92969 l 1.2487,-5.32293 h 1.69532 l -2.58855,10.00783 z"
         style="font-weight:normal;font-size:18.6667px;font-family:'Droid Sans';-inkscape-font-specification:'Droid Sans, Normal';fill:#ffffff"
         id="path2018" />
      <path
         d="m -302.10617,-262.74762 -1.53125,-5.61459 q -0.0365,-0.16407 -0.0911,-0.36459 -0.0547,-0.20963 -0.10937,-0.4375 -0.0547,-0.22786 -0.11849,-0.46484 -0.0547,-0.23698 -0.10938,-0.46485 -0.1276,-0.52864 -0.26432,-1.09375 h -0.0547 q -0.1276,0.57422 -0.24609,1.10287 -0.10026,0.45573 -0.21875,0.9388 -0.10938,0.48308 -0.20964,0.82032 l -1.56771,5.57813 h -1.92318 l -2.5612,-10.00783 h 1.74088 l 1.19402,5.32293 q 0.0911,0.41015 0.18229,0.89323 0.0911,0.47396 0.17318,0.94792 0.082,0.46484 0.14583,0.88411 0.0638,0.41016 0.10026,0.67448 h 0.0547 q 0.0456,-0.23698 0.11849,-0.62891 0.082,-0.40104 0.17318,-0.83854 0.10026,-0.44661 0.20052,-0.875 0.10026,-0.4375 0.1914,-0.73828 l 1.63152,-5.64194 h 1.78646 l 1.56771,5.64194 q 0.082,0.30989 0.18229,0.72917 0.10938,0.41927 0.20964,0.85677 0.10026,0.42838 0.18229,0.82943 0.082,0.40104 0.11849,0.66536 h 0.0547 q 0.0273,-0.23698 0.082,-0.62891 0.0638,-0.40104 0.14583,-0.875 0.082,-0.47396 0.17318,-0.96614 0.10026,-0.50131 0.20052,-0.92969 l 1.2487,-5.32293 h 1.69532 l -2.58855,10.00783 z"
         style="font-weight:normal;font-size:18.6667px;font-family:'Droid Sans';-inkscape-font-specification:'Droid Sans, Normal';fill:#ffffff"
         id="path2020" />
      <path
         d="m -286.17906,-262.74762 -1.53125,-5.61459 q -0.0365,-0.16407 -0.0912,-0.36459 -0.0547,-0.20963 -0.10937,-0.4375 -0.0547,-0.22786 -0.11849,-0.46484 -0.0547,-0.23698 -0.10938,-0.46485 -0.1276,-0.52864 -0.26432,-1.09375 h -0.0547 q -0.1276,0.57422 -0.24609,1.10287 -0.10027,0.45573 -0.21876,0.9388 -0.10937,0.48308 -0.20963,0.82032 l -1.56771,5.57813 h -1.92318 l -2.56121,-10.00783 h 1.74089 l 1.19402,5.32293 q 0.0911,0.41015 0.18229,0.89323 0.0911,0.47396 0.17318,0.94792 0.082,0.46484 0.14583,0.88411 0.0638,0.41016 0.10026,0.67448 h 0.0547 q 0.0456,-0.23698 0.11849,-0.62891 0.082,-0.40104 0.17317,-0.83854 0.10026,-0.44661 0.20053,-0.875 0.10026,-0.4375 0.1914,-0.73828 l 1.63152,-5.64194 h 1.78646 l 1.56771,5.64194 q 0.082,0.30989 0.18229,0.72917 0.10938,0.41927 0.20964,0.85677 0.10026,0.42838 0.18229,0.82943 0.082,0.40104 0.11849,0.66536 h 0.0547 q 0.0273,-0.23698 0.082,-0.62891 0.0638,-0.40104 0.14583,-0.875 0.082,-0.47396 0.17318,-0.96614 0.10026,-0.50131 0.20052,-0.92969 l 1.2487,-5.32293 h 1.69531 l -2.58854,10.00783 z"
         style="font-weight:normal;font-size:18.6667px;font-family:'Droid Sans';-inkscape-font-specification:'Droid Sans, Normal';fill:#ffffff"
         id="path2022" />
      <path
         d="m -278.09962,-263.75934 q 0,-0.34635 0.0911,-0.58333 0.0912,-0.2461 0.2461,-0.39193 0.15495,-0.15495 0.36458,-0.21875 0.20964,-0.0729 0.45573,-0.0729 0.23698,0 0.44662,0.0729 0.21875,0.0638 0.3737,0.21875 0.15494,0.14583 0.24609,0.39193 0.0911,0.23698 0.0911,0.58333 0,0.33724 -0.0911,0.58333 -0.0912,0.23698 -0.24609,0.39193 -0.15495,0.15495 -0.3737,0.22787 -0.20964,0.0729 -0.44662,0.0729 -0.24609,0 -0.45573,-0.0729 -0.20963,-0.0729 -0.36458,-0.22787 -0.15495,-0.15495 -0.2461,-0.39193 -0.0911,-0.24609 -0.0911,-0.58333 z"
         style="font-weight:normal;font-size:18.6667px;font-family:'Droid Sans';-inkscape-font-specification:'Droid Sans, Normal';fill:#ffffff"
         id="path2024" />
      <path
         d="m -266.52018,-272.93774 q 0.26432,0 0.59245,0.0273 0.32813,0.0182 0.5651,0.0638 l -0.21875,1.53126 q -0.2552,-0.0456 -0.52864,-0.0729 -0.26433,-0.0365 -0.50131,-0.0365 -0.57422,0 -1.04817,0.23698 -0.47396,0.22787 -0.82032,0.66537 -0.33724,0.42838 -0.52864,1.03906 -0.1823,0.60156 -0.1823,1.33985 v 5.39584 h -1.65885 v -10.00783 h 1.34896 l 0.20052,1.83203 h 0.0729 q 0.22787,-0.39192 0.48308,-0.75651 0.26432,-0.36458 0.58333,-0.63802 0.32813,-0.28255 0.72917,-0.44661 0.40104,-0.17318 0.91146,-0.17318 z"
         style="font-weight:normal;font-size:18.6667px;font-family:'Droid Sans';-inkscape-font-specification:'Droid Sans, Normal';fill:#ffffff"
         id="path2026" />
      <path
         d="m -253.24541,-267.76976 q 0,1.2487 -0.3099,2.22396 -0.30078,0.96615 -0.875,1.63151 -0.56511,0.65625 -1.37631,1.00261 -0.8112,0.34635 -1.82292,0.34635 -0.9388,0 -1.73177,-0.34635 -0.79297,-0.34636 -1.37631,-1.00261 -0.57422,-0.66536 -0.90234,-1.63151 -0.31901,-0.97526 -0.31901,-2.22396 0,-1.23959 0.30078,-2.19662 0.3099,-0.96615 0.875,-1.6224 0.56511,-0.66537 1.37631,-1.00261 0.82031,-0.34635 1.83203,-0.34635 0.9388,0 1.73177,0.34635 0.79297,0.33724 1.36719,1.00261 0.58334,0.65625 0.90235,1.6224 0.32813,0.95703 0.32813,2.19662 z m -7.00002,0 q 0,1.90495 0.6198,2.87109 0.6289,0.95704 2.03255,0.95704 1.40365,0 2.01433,-0.95704 0.61979,-0.96614 0.61979,-2.87109 0,-1.90496 -0.62891,-2.84376 -0.61979,-0.94792 -2.02344,-0.94792 -1.40365,0 -2.02344,0.94792 -0.61068,0.9388 -0.61068,2.84376 z"
         style="font-weight:normal;font-size:18.6667px;font-family:'Droid Sans';-inkscape-font-specification:'Droid Sans, Normal';fill:#ffffff"
         id="path2028" />
      <path
         d="m -242.64124,-265.49111 q 0,0.72916 -0.26432,1.27604 -0.26432,0.54688 -0.76563,0.92057 -0.49219,0.36459 -1.19401,0.54688 -0.70182,0.18229 -1.57683,0.18229 -0.99349,0 -1.70443,-0.16406 -0.71093,-0.15495 -1.2487,-0.46485 v -1.51302 q 0.28256,0.14584 0.62891,0.29167 0.34636,0.13672 0.72917,0.24609 0.38281,0.10938 0.78386,0.18229 0.41015,0.0638 0.81119,0.0638 0.59245,0 1.00261,-0.10026 0.41927,-0.10026 0.67448,-0.28256 0.26432,-0.1914 0.38281,-0.45573 0.11849,-0.27343 0.11849,-0.60156 0,-0.28255 -0.0911,-0.51042 -0.0911,-0.22786 -0.33724,-0.44661 -0.23698,-0.22787 -0.65625,-0.45573 -0.41927,-0.22787 -1.07553,-0.51042 -0.65625,-0.28255 -1.18489,-0.55599 -0.51954,-0.27344 -0.88412,-0.61068 -0.36458,-0.33724 -0.56511,-0.77474 -0.1914,-0.44662 -0.1914,-1.05729 0,-0.63803 0.24609,-1.13021 0.25521,-0.50131 0.71094,-0.83855 0.45573,-0.33724 1.09375,-0.51041 0.63803,-0.17318 1.42188,-0.17318 0.88412,0 1.61328,0.1914 0.73829,0.19141 1.39454,0.50131 l -0.57422,1.33984 q -0.59245,-0.26432 -1.22136,-0.45573 -0.61979,-0.20052 -1.26693,-0.20052 -0.92969,0 -1.3763,0.3099 -0.44662,0.30078 -0.44662,0.86589 0,0.31901 0.10026,0.55599 0.10938,0.23698 0.36459,0.44661 0.25521,0.20964 0.68359,0.42839 0.42839,0.20963 1.06641,0.47396 0.65625,0.27344 1.16667,0.54687 0.51953,0.27344 0.88412,0.6198 0.36458,0.33724 0.55599,0.77474 0.1914,0.4375 0.1914,1.04818 z"
         style="font-weight:normal;font-size:18.6667px;font-family:'Droid Sans';-inkscape-font-specification:'Droid Sans, Normal';fill:#ffffff"
         id="path2030" />
      <path
         d="m -236.54878,-262.74762 h -1.65886 v -10.00783 h 1.65886 z m -1.78646,-12.71487 q 0,-0.54687 0.27343,-0.79297 0.28256,-0.24609 0.69271,-0.24609 0.20053,0 0.3737,0.0638 0.1823,0.0547 0.3099,0.18229 0.13672,0.12761 0.20964,0.32813 0.082,0.19141 0.082,0.46484 0,0.52865 -0.29167,0.79297 -0.28255,0.25521 -0.6836,0.25521 -0.41015,0 -0.69271,-0.25521 -0.27343,-0.2552 -0.27343,-0.79297 z"
         style="font-weight:normal;font-size:18.6667px;font-family:'Droid Sans';-inkscape-font-specification:'Droid Sans, Normal';fill:#ffffff"
         id="path2032" />
      <path
         d="m -228.35085,-263.9234 q 0.16406,0 0.36458,-0.0182 0.20964,-0.0182 0.40105,-0.0456 0.1914,-0.0273 0.34635,-0.0638 0.16406,-0.0365 0.2461,-0.0638 v 1.25782 q -0.11849,0.0547 -0.30079,0.10937 -0.18229,0.0547 -0.40104,0.0911 -0.21875,0.0456 -0.45573,0.0638 -0.23698,0.0273 -0.46484,0.0273 -0.56511,0 -1.04818,-0.14583 -0.48308,-0.14583 -0.83855,-0.5013 -0.34635,-0.35547 -0.54687,-0.95704 -0.20052,-0.61068 -0.20052,-1.53125 v -5.806 h -1.41277 v -0.73828 l 1.41277,-0.71094 0.71094,-2.09636 h 0.95703 v 2.29688 h 2.51563 v 1.2487 h -2.51563 v 5.806 q 0,0.88412 0.28255,1.33073 0.29167,0.44662 0.94792,0.44662 z"
         style="font-weight:normal;font-size:18.6667px;font-family:'Droid Sans';-inkscape-font-specification:'Droid Sans, Normal';fill:#ffffff"
         id="path2034" />
      <path
         d="m -217.40943,-262.74762 -0.33724,-1.38542 h -0.0729 q -0.30078,0.41016 -0.60156,0.71094 -0.30078,0.29167 -0.65625,0.48307 -0.35547,0.19141 -0.79297,0.28256 -0.4375,0.0911 -1.01172,0.0911 -0.62891,0 -1.15756,-0.18229 -0.52864,-0.17318 -0.92057,-0.53776 -0.38281,-0.3737 -0.60156,-0.92969 -0.21875,-0.56511 -0.21875,-1.33073 0,-1.4948 1.04818,-2.29688 1.05729,-0.80209 3.20833,-0.875 l 1.67709,-0.0638 v -0.62891 q 0,-0.61068 -0.13672,-1.02084 -0.1276,-0.41015 -0.38281,-0.65625 -0.2461,-0.25521 -0.61979,-0.36458 -0.36459,-0.10938 -0.83855,-0.10938 -0.75651,0 -1.41276,0.21875 -0.64714,0.21875 -1.2487,0.52865 l -0.58334,-1.2487 q 0.67449,-0.36458 1.50391,-0.61979 0.82943,-0.25521 1.74089,-0.25521 0.92969,0 1.60417,0.1914 0.6836,0.1823 1.1211,0.59245 0.44661,0.40105 0.66536,1.02995 0.21875,0.62891 0.21875,1.52214 v 6.85418 z m -3.04427,-1.15755 q 0.55599,0 1.02994,-0.17318 0.47396,-0.17318 0.82032,-0.51953 0.34635,-0.35547 0.53776,-0.88412 0.20052,-0.53776 0.20052,-1.25781 v -0.90235 l -1.30339,0.0638 q -0.82031,0.0365 -1.3763,0.18229 -0.55599,0.14584 -0.89323,0.41016 -0.32813,0.25521 -0.47396,0.62891 -0.14583,0.36458 -0.14583,0.82943 0,0.83854 0.4375,1.23047 0.44661,0.39193 1.16667,0.39193 z"
         style="font-weight:normal;font-size:18.6667px;font-family:'Droid Sans';-inkscape-font-specification:'Droid Sans, Normal';fill:#ffffff"
         id="path2036" />
      <path
         d="m -211.38989,-263.75934 q 0,-0.34635 0.0911,-0.58333 0.0911,-0.2461 0.24609,-0.39193 0.15495,-0.15495 0.36458,-0.21875 0.20964,-0.0729 0.45573,-0.0729 0.23698,0 0.44662,0.0729 0.21875,0.0638 0.3737,0.21875 0.15495,0.14583 0.24609,0.39193 0.0911,0.23698 0.0911,0.58333 0,0.33724 -0.0911,0.58333 -0.0911,0.23698 -0.24609,0.39193 -0.15495,0.15495 -0.3737,0.22787 -0.20964,0.0729 -0.44662,0.0729 -0.24609,0 -0.45573,-0.0729 -0.20963,-0.0729 -0.36458,-0.22787 -0.15495,-0.15495 -0.24609,-0.39193 -0.0911,-0.24609 -0.0911,-0.58333 z"
         style="font-weight:normal;font-size:18.6667px;font-family:'Droid Sans';-inkscape-font-specification:'Droid Sans, Normal';fill:#ffffff"
         id="path2038" />
      <path
         d="m -197.88727,-262.74762 v -6.44402 q 0,-1.1849 -0.48307,-1.77735 -0.47396,-0.59245 -1.49479,-0.59245 -0.73829,0 -1.23959,0.23698 -0.5013,0.23698 -0.8112,0.70183 -0.30078,0.46484 -0.4375,1.13932 -0.1276,0.67448 -0.1276,1.54948 v 5.18621 h -1.65886 v -10.00783 h 1.34896 l 0.23698,1.34896 h 0.0911 q 0.22787,-0.39193 0.53777,-0.67448 0.31901,-0.29167 0.69271,-0.48307 0.37369,-0.19141 0.79297,-0.28256 0.41927,-0.0911 0.85677,-0.0911 1.66797,0 2.50651,0.875 0.84766,0.86589 0.84766,2.77995 v 6.53517 z"
         style="font-weight:normal;font-size:18.6667px;font-family:'Droid Sans';-inkscape-font-specification:'Droid Sans, Normal';fill:#ffffff"
         id="path2040" />
      <path
         d="m -189.48881,-262.74762 h -1.65886 v -14.18232 h 1.65886 z"
         style="font-weight:normal;font-size:18.6667px;font-family:'Droid Sans';-inkscape-font-specification:'Droid Sans, Normal';fill:#ffffff"
         id="path2042" />
    </g>
    <path
       style="fill:#e8ab1c;stroke:#2a2954;stroke-width:3.2;stroke-dasharray:none;stroke-opacity:1;paint-order:markers stroke fill"
       d="m -281.47731,-354.792 c -3.36085,-2.04368 -2.96137,-8.02429 0.54073,-9.5451 2.39066,-1.43528 10.22226,-1.34063 6.05808,-5.42628 -1.10652,-0.87175 -4.21125,-1.02778 -6.53282,-0.32833 -0.99283,0.29913 -1.28873,0.11133 -1.15789,-0.7349 0.32063,-2.07371 5.65626,-2.9332 9.06274,-1.45988 2.03523,0.88026 2.29254,1.95297 2.69838,11.24936 0.25799,5.90979 0.18117,6.3875 -1.01342,6.30207 -0.71094,-0.0508 -1.29262,-0.47518 -1.29262,-0.94299 0,-1.09512 -0.65712,-1.07837 -2.03353,0.0518 -1.71772,1.41052 -4.43498,1.76862 -6.32965,0.83417 z m 6.70291,-2.51857 c 0.45628,-0.0583 0.74315,-1.34723 0.6961,-3.12771 -0.079,-2.99521 -0.10549,-3.02749 -2.38823,-2.92646 -2.73745,0.12117 -5.00098,1.85598 -5.00098,3.83284 0,2.13354 1.43643,3.14901 3.82863,2.70663 1.14858,-0.21241 2.43761,-0.4308 2.86448,-0.4853 z m 46.14908,2.91645 c -3.84066,-0.97338 -5.93551,-3.38228 -5.89104,-8.98754 0.19567,-3.2931 0.87866,-7.41707 3.91921,-8.70192 1.41714,-0.57735 5.28442,-1.64884 8.378,0.89165 1.77324,1.504 2.25394,2.50051 2.53218,5.2492 0.45498,4.49475 -0.18232,7.38819 -2.08874,9.48303 -1.48673,1.63369 -4.71383,2.60687 -6.84961,2.06558 z m 4.62839,-3.07232 c 1.1342,-0.78718 1.35126,-1.75166 1.35126,-6.00405 0,-4.52665 -0.17503,-5.20091 -1.64338,-6.33085 -2.15067,-1.655 -3.89126,-1.59896 -5.63873,0.18155 -1.8817,1.91725 -2.06347,9.99873 -0.26728,11.88276 1.37534,1.44261 4.32399,1.57134 6.19813,0.27059 z m -70.6968,-3.97508 c 0,-3.79239 -0.29628,-7.63497 -0.6584,-8.53906 -0.50396,-1.25827 -0.39576,-1.84955 0.46127,-2.52098 0.67041,-0.52522 1.21843,-0.61204 1.36582,-0.21638 0.8813,2.36564 1.52471,2.62344 3.14538,1.26022 1.55258,-1.30595 4.01572,-1.77311 4.03154,-0.76462 0.004,0.27256 0.008,0.79294 0.008,1.15637 0,0.36344 -0.66808,0.66078 -1.4846,0.66078 -3.08899,0 -4.08436,2.27915 -4.08436,9.35216 0,6.06626 -0.0942,6.50679 -1.39223,6.50679 -1.30328,0 -1.39222,-0.44053 -1.39222,-6.89528 z m 31.74781,5.65186 c -3.0661,-3.21607 -3.10078,-11.74181 -0.0617,-15.17026 1.32391,-1.49351 2.17605,-1.84253 4.29975,-1.76106 1.45674,0.0559 3.11849,0.22814 3.69279,0.38272 0.8185,0.22034 1.11939,-0.56467 1.39223,-3.6322 0.20346,-2.28761 0.70954,-4.02615 1.2182,-4.18499 0.95103,-0.29696 1.03381,0.68991 1.1782,14.0454 0.0472,4.36121 0.33197,8.59999 0.63294,9.4195 0.40668,1.10729 0.24865,1.59879 -0.61519,1.91346 -0.66595,0.24258 -1.42067,0.0296 -1.76705,-0.49885 -0.49294,-0.75191 -0.86396,-0.7697 -2.00865,-0.0963 -2.15562,1.26814 -6.57547,1.03641 -7.9615,-0.41743 z m 7.48889,-2.1085 c 1.68242,-1.25622 1.83418,-1.76889 1.83418,-6.19657 0,-5.12246 -0.38236,-5.8209 -3.58325,-6.54533 -1.27199,-0.28787 -2.3443,-0.0317 -3.46124,0.82684 -1.433,1.10147 -1.6183,1.81067 -1.6183,6.19364 0,5.38642 0.82529,7.09097 3.43326,7.09097 0.85865,0 2.38656,-0.61629 3.39535,-1.36955 z m 13.1209,2.52593 c -0.0457,-0.45429 -0.13529,-4.00622 -0.19897,-7.89318 -0.1156,-7.05174 -0.11974,-7.06764 -1.89349,-7.26868 -0.97773,-0.11082 -1.74831,-0.62641 -2.05838,-1.19267 0.43956,-0.8964 2.18013,-0.65332 3.76546,-0.5355 l 2.54795,0.2051 -0.0315,7.26869 c -0.0434,9.99616 -0.0702,10.24223 -1.11969,10.24223 -0.5105,0 -0.96558,-0.37169 -1.01134,-0.82599 z"
       id="path16619-1"
       sodipodi:nodetypes="cccsssssssscssssssscccsssssssssssssscsssssssssssssssssssssssssssscccssss" />
  </g>
</svg>
